<svg width="38" height="33" viewBox="0 0 38 33" fill="none" xmlns="http://www.w3.org/2000/svg">
<path d="M8.59589 7.37203C6.17805 9.47174 4.6602 12.247 4.3218 15.2307C3.98329 18.2154 4.84872 21.2022 6.75528 23.6801C8.66024 26.1559 11.4841 27.969 14.7361 28.8256C17.988 29.6823 21.4805 29.5337 24.6225 28.4035C27.7646 27.2732 30.3741 25.2262 31.9932 22.5956C33.6138 19.9626 34.137 16.9141 33.4636 13.9741C32.7906 11.0361 30.9691 8.40751 28.3303 6.52682C25.6924 4.64682 22.3949 3.625 19 3.625" stroke="#222222" stroke-linecap="round"/>
<path d="M19 16.5L11.0834 9.625" stroke="#222222" stroke-linecap="round"/>
<path d="M19 3.4375V6.875" stroke="#222222" stroke-linecap="round"/>
<path d="M33.25 16.5L30.0833 16.5" stroke="#222222" stroke-linecap="round"/>
<path d="M19 26.125V28.875" stroke="#222222" stroke-linecap="round"/>
<path d="M7.91663 16.5L4.74996 16.5" stroke="#222222" stroke-linecap="round"/>
</svg>
