<svg width="35" height="33" viewBox="0 0 35 33" fill="none" xmlns="http://www.w3.org/2000/svg">
<path d="M7.87622 7.38576C5.64483 9.48964 4.25138 12.2629 3.94091 15.2351C3.6304 18.2075 4.42323 21.1867 6.17901 23.6643C7.93427 26.1411 10.5417 27.9617 13.5525 28.8229C16.5631 29.6839 19.7969 29.5343 22.7046 28.3988C25.6127 27.263 28.0198 25.209 29.5102 22.5801C31.001 19.9504 31.4799 16.9114 30.862 13.9825C30.2443 11.0542 28.57 8.42472 26.1324 6.53856C23.6954 4.65282 20.6445 3.625 17.5 3.625" stroke="#222222" stroke-linecap="round"/>
<path d="M17.5 16.5L10.2084 9.625" stroke="#222222" stroke-linecap="round"/>
<path d="M17.5 3.4375V6.875" stroke="#222222" stroke-linecap="round"/>
<path d="M30.625 16.5L27.7083 16.5" stroke="#222222" stroke-linecap="round"/>
<path d="M17.5 26.125V28.875" stroke="#222222" stroke-linecap="round"/>
<path d="M7.29163 16.5L4.37496 16.5" stroke="#222222" stroke-linecap="round"/>
</svg>
