<svg width="36" height="34" viewBox="0 0 35 33" fill="none" xmlns="http://www.w3.org/2000/svg">
<path d="M7.29163 17.5444C7.29163 15.6775 7.29163 14.7441 7.69188 13.9235C8.09214 13.103 8.84383 12.4955 10.3472 11.2806L11.8055 10.102C14.5229 7.90595 15.8815 6.80792 17.5 6.80792C19.1184 6.80792 20.477 7.90595 23.1944 10.102L24.6527 11.2806C26.1561 12.4955 26.9078 13.103 27.308 13.9235C27.7083 14.7441 27.7083 15.6775 27.7083 17.5444V23.375C27.7083 25.9677 27.7083 27.2641 26.854 28.0695C25.9997 28.875 24.6248 28.875 21.875 28.875H13.125C10.3751 28.875 9.00017 28.875 8.1459 28.0695C7.29163 27.2641 7.29163 25.9677 7.29163 23.375V17.5444Z" stroke="#36549B"/>
<path d="M21.1458 28.875V21.625C21.1458 21.0727 20.6981 20.625 20.1458 20.625H14.8541C14.3018 20.625 13.8541 21.0727 13.8541 21.625V28.875" stroke="#36549B" stroke-linecap="round" stroke-linejoin="round"/>
</svg>
