<svg width="41" height="32" viewBox="0 0 41 32" fill="none" xmlns="http://www.w3.org/2000/svg">
<path d="M8.54163 17.0128C8.54163 15.2025 8.54163 14.2973 9.0105 13.5017C9.47937 12.706 10.3599 12.1169 12.121 10.9388L13.8293 9.79591C17.0125 7.66641 18.6041 6.60165 20.5 6.60165C22.3958 6.60165 23.9874 7.66641 27.1706 9.79591L28.8789 10.9388C30.64 12.1169 31.5205 12.706 31.9894 13.5017C32.4583 14.2973 32.4583 15.2025 32.4583 17.0128V22.6667C32.4583 25.1808 32.4583 26.4379 31.4576 27.219C30.4569 28 28.8462 28 25.625 28H15.375C12.1537 28 10.5431 28 9.54234 27.219C8.54163 26.4379 8.54163 25.1808 8.54163 22.6667V17.0128Z" stroke="#495E8E"/>
<path d="M24.7708 28V21C24.7708 20.4477 24.3231 20 23.7708 20H17.2291C16.6768 20 16.2291 20.4477 16.2291 21V28" stroke="#495E8E" stroke-linecap="round" stroke-linejoin="round"/>
</svg>
