<svg width="34" height="28" viewBox="0 0 34 28" fill="none" xmlns="http://www.w3.org/2000/svg">
<path d="M3.54163 6.11665C3.54163 4.99655 3.54163 4.4365 3.75961 4.00868C3.95136 3.63235 4.25732 3.32639 4.63364 3.13464C5.06147 2.91666 5.62152 2.91666 6.74163 2.91666H27.2583C28.3784 2.91666 28.9385 2.91666 29.3663 3.13464C29.7426 3.32639 30.0486 3.63235 30.2403 4.00868C30.4583 4.4365 30.4583 4.99655 30.4583 6.11666V21.8833C30.4583 23.0034 30.4583 23.5635 30.2403 23.9913C30.0486 24.3676 29.7426 24.6736 29.3663 24.8653C28.9385 25.0833 28.3784 25.0833 27.2583 25.0833H6.74162C5.62152 25.0833 5.06147 25.0833 4.63364 24.8653C4.25732 24.6736 3.95136 24.3676 3.75961 23.9913C3.54163 23.5635 3.54163 23.0034 3.54163 21.8833V6.11665Z" stroke="#222222" stroke-linecap="round"/>
<path d="M17.7083 17.5343C17.7083 20.2194 14.2618 22.0526 13.1157 22.5881C12.8817 22.6973 12.6182 22.6973 12.3843 22.5881C11.2381 22.0526 7.79163 20.2194 7.79163 17.5343C7.79163 15.0637 10.1941 13.4167 12.75 13.4167C15.3944 13.4167 17.7083 15.0637 17.7083 17.5343Z" stroke="#222222"/>
<path d="M26.2084 25.0833L17.7084 7.58331" stroke="#222222"/>
<path d="M30.4583 5.25L3.54163 9.91667" stroke="#222222"/>
<ellipse cx="12.75" cy="17.5" rx="1.41667" ry="1.16667" fill="#222222"/>
</svg>
