<svg width="35" height="33" viewBox="0 0 35 33" fill="none" xmlns="http://www.w3.org/2000/svg">
<path d="M3.64587 6.6375C3.64587 5.5174 3.64587 4.95734 3.86386 4.52952C4.05561 4.15319 4.36157 3.84723 4.73789 3.65549C5.16572 3.4375 5.72577 3.4375 6.84587 3.4375H28.1542C29.2743 3.4375 29.8344 3.4375 30.2622 3.65549C30.6385 3.84723 30.9445 4.15319 31.1362 4.52952C31.3542 4.95734 31.3542 5.51739 31.3542 6.6375V26.3625C31.3542 27.4826 31.3542 28.0427 31.1362 28.4705C30.9445 28.8468 30.6385 29.1528 30.2622 29.3445C29.8344 29.5625 29.2743 29.5625 28.1542 29.5625H6.84588C5.72577 29.5625 5.16572 29.5625 4.73789 29.3445C4.36157 29.1528 4.05561 28.8468 3.86386 28.4705C3.64587 28.0427 3.64587 27.4826 3.64587 26.3625V6.6375Z" stroke="#36549B" stroke-linecap="round"/>
<path d="M18.2292 20.6654C18.2292 23.8023 14.743 25.9528 13.5329 26.6047C13.2756 26.7434 12.9745 26.7434 12.7172 26.6047C11.507 25.9528 8.02087 23.8023 8.02087 20.6654C8.02087 17.7537 10.494 15.8125 13.125 15.8125C15.8473 15.8125 18.2292 17.7537 18.2292 20.6654Z" stroke="#36549B"/>
<path d="M26.9791 29.5625L18.2291 8.9375" stroke="#36549B"/>
<path d="M31.3542 6.1875L3.64587 11.6875" stroke="#36549B"/>
<ellipse cx="13.125" cy="20.625" rx="1.45833" ry="1.375" fill="#36549B"/>
</svg>
