<svg width="33" height="30" viewBox="0 0 33 30" fill="none" xmlns="http://www.w3.org/2000/svg">
<path d="M6.87593 5.47995L8.74985 3.67064C9.13734 3.29651 9.75155 3.29651 10.139 3.67064L15.1438 8.50282C15.551 8.89599 15.551 9.54846 15.1438 9.94162L13.1134 11.902C12.8483 12.1579 12.7828 12.5576 12.9522 12.8848C14.8585 16.5658 17.9068 19.5297 21.6399 21.3319L21.7959 21.4072C22.1188 21.5631 22.5047 21.5012 22.7626 21.2522L24.861 19.2262C25.2485 18.8521 25.8627 18.8521 26.2502 19.2262L31.2549 24.0584C31.6621 24.4515 31.6621 25.104 31.2549 25.4972L29.1713 27.5089C27.0793 29.5288 23.84 29.7577 21.4847 28.0521L15.3263 23.5926C13.5622 22.3151 11.9884 20.7935 10.6522 19.0734L6.3051 13.4771C4.42506 11.0568 4.67118 7.60867 6.87593 5.47995Z" stroke="#7C6F6F"/>
</svg>
