<svg width="36" height="34" viewBox="0 0 35 33" fill="none" xmlns="http://www.w3.org/2000/svg">
<path d="M6.5625 8.9375L6.5625 22.8125C6.5625 24.6981 6.5625 25.6409 7.14829 26.2267C7.73407 26.8125 8.67688 26.8125 10.5625 26.8125L26.4375 26.8125C27.3803 26.8125 27.8517 26.8125 28.1446 26.5196C28.4375 26.2267 28.4375 25.7553 28.4375 24.8125V22.6875M6.5625 8.9375C6.5625 10.4563 7.79372 11.6875 9.3125 11.6875L26.4375 11.6875C27.3803 11.6875 27.8517 11.6875 28.1446 11.9804C28.4375 12.2733 28.4375 12.7447 28.4375 13.6875L28.4375 17.1875M6.5625 8.9375C6.5625 7.41872 7.79372 6.1875 9.3125 6.1875L26.1935 6.1875C26.46 6.1875 26.5933 6.1875 26.6961 6.23702C26.7982 6.28616 26.8805 6.3685 26.9297 6.47056C26.9792 6.57338 26.9792 6.70666 26.9792 6.97321C26.9792 8.57256 26.9792 9.37223 26.6821 9.98915C26.3872 10.6015 25.8931 11.0955 25.2808 11.3904C24.6639 11.6875 23.8642 11.6875 22.2649 11.6875H21.875M28.4375 22.6875H24.6042C23.6614 22.6875 23.19 22.6875 22.8971 22.3946C22.6042 22.1017 22.6042 21.6303 22.6042 20.6875V19.1875C22.6042 18.2447 22.6042 17.7733 22.8971 17.4804C23.19 17.1875 23.6614 17.1875 24.6042 17.1875H28.4375M28.4375 22.6875V17.1875" stroke="#36549B"/>
</svg>
