<svg width="45" height="34" viewBox="0 0 45 34" fill="none" xmlns="http://www.w3.org/2000/svg">
<path d="M8.4375 9.20833L8.4375 23.625C8.4375 25.5106 8.4375 26.4534 9.02329 27.0392C9.60907 27.625 10.5519 27.625 12.4375 27.625L34.5625 27.625C35.5053 27.625 35.9767 27.625 36.2696 27.3321C36.5625 27.0392 36.5625 26.5678 36.5625 25.625V23.375M8.4375 9.20833C8.4375 10.7731 9.70603 12.0417 11.2708 12.0417L34.5625 12.0417C35.5053 12.0417 35.9767 12.0417 36.2696 12.3346C36.5625 12.6275 36.5625 13.0989 36.5625 14.0417V17.7083M8.4375 9.20833C8.4375 7.64353 9.70603 6.375 11.2708 6.375L33.878 6.375C34.167 6.375 34.3115 6.375 34.4211 6.43294C34.51 6.4799 34.5826 6.55253 34.6296 6.64137C34.6875 6.751 34.6875 6.89551 34.6875 7.18452C34.6875 8.91863 34.6875 9.78568 34.3398 10.4435C34.0581 10.9765 33.6223 11.4123 33.0893 11.694C32.4315 12.0417 31.5645 12.0417 29.8304 12.0417L28.125 12.0417M36.5625 23.375H31.0625C30.1197 23.375 29.6483 23.375 29.3554 23.0821C29.0625 22.7892 29.0625 22.3178 29.0625 21.375V19.7083C29.0625 18.7655 29.0625 18.2941 29.3554 18.0012C29.6483 17.7083 30.1197 17.7083 31.0625 17.7083H36.5625M36.5625 23.375V17.7083" stroke="#222222"/>
</svg>
